<svg xmlns="http://www.w3.org/2000/svg" xmlns:xlink="http://www.w3.org/1999/xlink" width="457" height="304" viewBox="0 0 457 304">
  <defs>
    <clipPath id="clip-path">
      <rect width="54" height="40" fill="none"/>
    </clipPath>
  </defs>
  <g id="Group_3" data-name="Group 3" transform="translate(-257 -134)">
    <g id="Group_1" data-name="Group 1">
      <g id="Rectangle_1" data-name="Rectangle 1" transform="translate(285 134)" fill="#fff" stroke="#d00e5b" stroke-width="1">
        <rect width="392" height="250" rx="5" stroke="none"/>
        <rect x="0.5" y="0.5" width="391" height="249" rx="4.5" fill="none"/>
      </g>
      <g id="Rectangle_2" data-name="Rectangle 2" transform="translate(306 156)" fill="#ddd" stroke="#d00e5b" stroke-width="1">
        <rect width="348" height="202" stroke="none"/>
        <rect x="0.5" y="0.5" width="347" height="201" fill="none"/>
      </g>
      <g id="Rectangle_3" data-name="Rectangle 3" transform="translate(306 156)" fill="#efbfbf" stroke="#707070" stroke-width="1">
        <rect width="348" height="12" stroke="none"/>
        <rect x="0.5" y="0.5" width="347" height="11" fill="none"/>
      </g>
      <g id="Rectangle_4" data-name="Rectangle 4" transform="translate(257 388)" fill="#fff" stroke="#d00e5b" stroke-width="1">
        <path d="M0,0H447a0,0,0,0,1,0,0V14a10,10,0,0,1-10,10H10A10,10,0,0,1,0,14V0A0,0,0,0,1,0,0Z" stroke="none"/>
        <path d="M1,.5H446a.5.5,0,0,1,.5.5V14a9.5,9.5,0,0,1-9.5,9.5H10A9.5,9.5,0,0,1,.5,14V1A.5.5,0,0,1,1,.5Z" fill="none"/>
      </g>
      <line id="Line_1" data-name="Line 1" x1="9" y2="7" transform="translate(276.5 381.5)" fill="none" stroke="#d00e5b" stroke-width="1"/>
      <line id="Line_2" data-name="Line 2" x2="7" y2="9" transform="translate(676.5 379.5)" fill="none" stroke="#d00e5b" stroke-width="1"/>
      <g id="Ellipse_1" data-name="Ellipse 1" transform="translate(474 141)" fill="none" stroke="#d00e5b" stroke-width="1">
        <circle cx="6" cy="6" r="6" stroke="none"/>
        <circle cx="6" cy="6" r="5.5" fill="none"/>
      </g>
      <g id="Rectangle_6" data-name="Rectangle 6" transform="translate(306 345)" fill="#efbfbf" stroke="#707070" stroke-width="1">
        <rect width="348" height="13" stroke="none"/>
        <rect x="0.5" y="0.5" width="347" height="12" fill="none"/>
      </g>
      <text id="_DOCTYPE_html_html_lang_en_head_meta_charset_UTF-8_meta_name_viewport_content_width_device-width_initial-scale_1.0_link_rel_stylesheet_href_css_main.css_title_Shiv_Full_Stack_Developer_title_head_body_" data-name="&lt;!DOCTYPE html&gt;
&lt;html lang=&quot;en&quot;&gt;
&lt;head&gt;
    &lt;meta charset=&quot;UTF-8&quot;&gt;
    &lt;meta name=&quot;viewport&quot; content=&quot;width=device-width, initial-scale=1.0&quot;&gt;
    &lt;link rel=&quot;stylesheet&quot; href=&quot;css/main.css&quot;&gt;
    &lt;title&gt;Shiv | Full Stack Developer&lt;/title&gt;
&lt;/head&gt;
&lt;body&gt;
    " transform="translate(321 175)" fill="#1b8241" font-size="5" font-family="SegoeUI, Segoe UI"><tspan x="0" y="5">&lt;!DOCTYPE html&gt;</tspan><tspan x="0" y="11">&lt;html lang=&quot;en&quot;&gt;</tspan><tspan x="0" y="17">&lt;head&gt;</tspan><tspan x="0" y="23" xml:space="preserve">    &lt;meta charset=&quot;UTF-8&quot;&gt;</tspan><tspan x="0" y="29" xml:space="preserve">    &lt;meta name=&quot;viewport&quot; content=&quot;width=device-width, initial-scale=1.0&quot;&gt;</tspan><tspan x="0" y="35" xml:space="preserve">    &lt;link rel=&quot;stylesheet&quot; href=&quot;css/main.css&quot;&gt;</tspan><tspan x="0" y="41" xml:space="preserve">    &lt;title&gt;Shiv | Full Stack Developer&lt;/title&gt;</tspan><tspan x="0" y="47">&lt;/head&gt;</tspan><tspan x="0" y="53">&lt;body&gt;</tspan><tspan x="0" y="59" xml:space="preserve">    &lt;header&gt;</tspan><tspan x="0" y="65" xml:space="preserve">        &lt;div class=&quot;card&quot;&gt;</tspan><tspan x="0" y="71" xml:space="preserve">            &lt;div class=&quot;grid-container&quot;&gt;</tspan><tspan x="0" y="77" xml:space="preserve">                &lt;div class=&quot;face&quot;&gt;</tspan><tspan x="0" y="83" xml:space="preserve">                    &lt;img src=&quot;images/face.png&quot; alt=&quot;&quot;&gt;</tspan><tspan x="0" y="89" xml:space="preserve">                    &lt;div class=&quot;vertical-bar&quot;&gt;&lt;/div&gt;</tspan><tspan x="0" y="95" xml:space="preserve">                &lt;/div&gt;</tspan><tspan x="0" y="101" xml:space="preserve">                &lt;div class=&quot;desc&quot;&gt;</tspan><tspan x="0" y="107" xml:space="preserve">                    &lt;h1&gt;S Shiv Prashant&lt;/h1&gt;</tspan><tspan x="0" y="113" xml:space="preserve">                    &lt;h3&gt;Full Stack Developer&lt;/h3&gt;</tspan><tspan x="0" y="119" xml:space="preserve">                    &lt;h4&gt;&lt;a href=&quot;mailto:shivprahsant777@gmail.com?Subject=Hello%20again&quot; target=&quot;_top&quot;&gt;shivprashant777@gmail.com&lt;/a&gt;&lt;/h4&gt;</tspan><tspan x="0" y="125" xml:space="preserve">                &lt;/div&gt;</tspan><tspan x="0" y="131" xml:space="preserve">                &lt;div class=&quot;social&quot;&gt;</tspan><tspan x="0" y="137" xml:space="preserve">                    &lt;a href=&quot;https://github.com/ShivPrashant777&quot;&gt;&lt;div class=&quot;github&quot;&gt;</tspan><tspan x="0" y="143" xml:space="preserve">                        &lt;img src=&quot;images/github-icon-white.svg&quot; alt=&quot;&quot;&gt;</tspan><tspan x="0" y="149" xml:space="preserve">                        &lt;p&gt;Github&lt;/p&gt;</tspan><tspan x="0" y="155" xml:space="preserve">                    &lt;/div&gt;&lt;/a&gt;</tspan><tspan x="0" y="161" xml:space="preserve">                &lt;/div&gt;</tspan></text>
    </g>
    <g id="Group_2" data-name="Group 2">
      <g id="Rectangle_7" data-name="Rectangle 7" transform="translate(630 273)" fill="#fff" stroke="#be57b7" stroke-width="1">
        <rect width="84" height="165" rx="5" stroke="none"/>
        <rect x="0.5" y="0.5" width="83" height="164" rx="4.5" fill="none"/>
      </g>
      <g id="Rectangle_8" data-name="Rectangle 8" transform="translate(635 289)" fill="none" stroke="#a91f9f" stroke-width="1">
        <rect width="75" height="134" stroke="none"/>
        <rect x="0.5" y="0.5" width="74" height="133" fill="none"/>
      </g>
      <g id="Rectangle_11" data-name="Rectangle 11" transform="translate(638 345)" fill="#fff" stroke="#707070" stroke-width="1" opacity="0.5">
        <rect width="69" height="61" rx="3" stroke="none"/>
        <rect x="0.5" y="0.5" width="68" height="60" rx="2.5" fill="none"/>
      </g>
      <g id="Ellipse_2" data-name="Ellipse 2" transform="translate(653 322)" fill="#fff" stroke="#0fbb6b" stroke-width="1">
        <circle cx="19.5" cy="19.5" r="19.5" stroke="none"/>
        <circle cx="19.5" cy="19.5" r="19" fill="none"/>
      </g>
      <g id="Rectangle_9" data-name="Rectangle 9" transform="translate(635 410)" fill="#fff" stroke="#be57b7" stroke-width="1">
        <rect width="75" height="13" stroke="none"/>
        <rect x="0.5" y="0.5" width="74" height="12" fill="none"/>
      </g>
      <g id="Polygon_1" data-name="Polygon 1" transform="matrix(-0.017, -1, 1, -0.017, 648.219, 420.256)" fill="#fff">
        <path d="M 5.116899967193604 4.5 L 0.8830999732017517 4.5 L 3 0.971833348274231 L 5.116899967193604 4.5 Z" stroke="none"/>
        <path d="M 3 1.943650007247925 L 1.766190052032471 4 L 4.233809947967529 4 L 3 1.943650007247925 M 3 0 L 6 5 L 0 5 L 3 0 Z" stroke="none" fill="#1dbf73"/>
      </g>
      <g id="Rectangle_10" data-name="Rectangle 10" transform="translate(692 414)" fill="#fff" stroke="#0fbb6b" stroke-width="1">
        <rect width="6" height="6" stroke="none"/>
        <rect x="0.5" y="0.5" width="5" height="5" fill="none"/>
      </g>
      <g id="Ellipse_3" data-name="Ellipse 3" transform="translate(670 414)" fill="#fff" stroke="#54ce95" stroke-width="1">
        <circle cx="2.5" cy="2.5" r="2.5" stroke="none"/>
        <circle cx="2.5" cy="2.5" r="2" fill="none"/>
      </g>
      <text id="Shiv_Prashant" data-name="Shiv Prashant" transform="translate(638 304)" fill="#1b8241" font-size="8" font-family="SegoeUI, Segoe UI"><tspan x="10.85" y="9">Shiv Prashant</tspan></text>
      <g id="Repeat_Grid_1" data-name="Repeat Grid 1" transform="translate(648 364)" clip-path="url(#clip-path)">
        <g transform="translate(-648 -363)">
          <g id="Rectangle_12" data-name="Rectangle 12" transform="translate(648 363)" fill="#fff" stroke="#ffb0b0" stroke-width="1">
            <rect width="50" height="7" stroke="none"/>
            <rect x="0.5" y="0.5" width="49" height="6" fill="none"/>
          </g>
        </g>
        <g transform="translate(-648 -354)">
          <g id="Rectangle_12-2" data-name="Rectangle 12" transform="translate(648 363)" fill="#fff" stroke="#ffb0b0" stroke-width="1">
            <rect width="50" height="7" stroke="none"/>
            <rect x="0.5" y="0.5" width="49" height="6" fill="none"/>
          </g>
        </g>
        <g transform="translate(-648 -345)">
          <g id="Rectangle_12-3" data-name="Rectangle 12" transform="translate(648 363)" fill="#fff" stroke="#ffb0b0" stroke-width="1">
            <rect width="50" height="7" stroke="none"/>
            <rect x="0.5" y="0.5" width="49" height="6" fill="none"/>
          </g>
        </g>
        <g transform="translate(-648 -336)">
          <g id="Rectangle_12-4" data-name="Rectangle 12" transform="translate(648 363)" fill="#fff" stroke="#ffb0b0" stroke-width="1">
            <rect width="50" height="7" stroke="none"/>
            <rect x="0.5" y="0.5" width="49" height="6" fill="none"/>
          </g>
        </g>
      </g>
    </g>
  </g>
</svg>
