<svg xmlns="http://www.w3.org/2000/svg" width="447" height="278" viewBox="0 0 447 278">
  <g id="Group_1" data-name="Group 1" transform="translate(-257 -134)">
    <g id="Rectangle_1" data-name="Rectangle 1" transform="translate(285 134)" fill="none" stroke="#d00e5b" stroke-width="1">
      <rect width="392" height="250" rx="5" stroke="none"/>
      <rect x="0.5" y="0.5" width="391" height="249" rx="4.5" fill="none"/>
    </g>
    <g id="Rectangle_2" data-name="Rectangle 2" transform="translate(306 156)" fill="none" stroke="#d00e5b" stroke-width="1">
      <rect width="348" height="202" stroke="none"/>
      <rect x="0.5" y="0.5" width="347" height="201" fill="none"/>
    </g>
    <g id="Rectangle_3" data-name="Rectangle 3" transform="translate(306 156)" fill="#efbfbf" stroke="#707070" stroke-width="1">
      <rect width="348" height="12" stroke="none"/>
      <rect x="0.5" y="0.5" width="347" height="11" fill="none"/>
    </g>
    <g id="Rectangle_4" data-name="Rectangle 4" transform="translate(257 388)" fill="none" stroke="#d00e5b" stroke-width="1">
      <path d="M0,0H447a0,0,0,0,1,0,0V14a10,10,0,0,1-10,10H10A10,10,0,0,1,0,14V0A0,0,0,0,1,0,0Z" stroke="none"/>
      <path d="M1,.5H446a.5.5,0,0,1,.5.5V14a9.5,9.5,0,0,1-9.5,9.5H10A9.5,9.5,0,0,1,.5,14V1A.5.5,0,0,1,1,.5Z" fill="none"/>
    </g>
    <line id="Line_1" data-name="Line 1" x1="9" y2="7" transform="translate(276.5 381.5)" fill="none" stroke="#d00e5b" stroke-width="1"/>
    <line id="Line_2" data-name="Line 2" x2="7" y2="9" transform="translate(676.5 379.5)" fill="none" stroke="#d00e5b" stroke-width="1"/>
    <g id="Ellipse_1" data-name="Ellipse 1" transform="translate(474 141)" fill="none" stroke="#d00e5b" stroke-width="1">
      <circle cx="6" cy="6" r="6" stroke="none"/>
      <circle cx="6" cy="6" r="5.5" fill="none"/>
    </g>
    <g id="Rectangle_6" data-name="Rectangle 6" transform="translate(306 345)" fill="#efbfbf" stroke="#707070" stroke-width="1">
      <rect width="348" height="13" stroke="none"/>
      <rect x="0.5" y="0.5" width="347" height="12" fill="none"/>
    </g>
    <text id="_DOCTYPE_html_html_lang_en_head_meta_charset_UTF-8_meta_name_viewport_content_width_device-width_initial-scale_1.0_link_rel_stylesheet_href_css_main.css_title_Shiv_Full_Stack_Developer_title_head_body_" data-name="&lt;!DOCTYPE html&gt;
&lt;html lang=&quot;en&quot;&gt;
&lt;head&gt;
    &lt;meta charset=&quot;UTF-8&quot;&gt;
    &lt;meta name=&quot;viewport&quot; content=&quot;width=device-width, initial-scale=1.0&quot;&gt;
    &lt;link rel=&quot;stylesheet&quot; href=&quot;css/main.css&quot;&gt;
    &lt;title&gt;Shiv | Full Stack Developer&lt;/title&gt;
&lt;/head&gt;
&lt;body&gt;
    " transform="translate(321 175)" fill="#1b8241" font-size="5" font-family="SegoeUI, Segoe UI"><tspan x="0" y="5">&lt;!DOCTYPE html&gt;</tspan><tspan x="0" y="11">&lt;html lang=&quot;en&quot;&gt;</tspan><tspan x="0" y="17">&lt;head&gt;</tspan><tspan x="0" y="23" xml:space="preserve">    &lt;meta charset=&quot;UTF-8&quot;&gt;</tspan><tspan x="0" y="29" xml:space="preserve">    &lt;meta name=&quot;viewport&quot; content=&quot;width=device-width, initial-scale=1.0&quot;&gt;</tspan><tspan x="0" y="35" xml:space="preserve">    &lt;link rel=&quot;stylesheet&quot; href=&quot;css/main.css&quot;&gt;</tspan><tspan x="0" y="41" xml:space="preserve">    &lt;title&gt;Shiv | Full Stack Developer&lt;/title&gt;</tspan><tspan x="0" y="47">&lt;/head&gt;</tspan><tspan x="0" y="53">&lt;body&gt;</tspan><tspan x="0" y="59" xml:space="preserve">    &lt;header&gt;</tspan><tspan x="0" y="65" xml:space="preserve">        &lt;div class=&quot;card&quot;&gt;</tspan><tspan x="0" y="71" xml:space="preserve">            &lt;div class=&quot;grid-container&quot;&gt;</tspan><tspan x="0" y="77" xml:space="preserve">                &lt;div class=&quot;face&quot;&gt;</tspan><tspan x="0" y="83" xml:space="preserve">                    &lt;img src=&quot;images/face.png&quot; alt=&quot;&quot;&gt;</tspan><tspan x="0" y="89" xml:space="preserve">                    &lt;div class=&quot;vertical-bar&quot;&gt;&lt;/div&gt;</tspan><tspan x="0" y="95" xml:space="preserve">                &lt;/div&gt;</tspan><tspan x="0" y="101" xml:space="preserve">                &lt;div class=&quot;desc&quot;&gt;</tspan><tspan x="0" y="107" xml:space="preserve">                    &lt;h1&gt;S Shiv Prashant&lt;/h1&gt;</tspan><tspan x="0" y="113" xml:space="preserve">                    &lt;h3&gt;Full Stack Developer&lt;/h3&gt;</tspan><tspan x="0" y="119" xml:space="preserve">                    &lt;h4&gt;&lt;a href=&quot;mailto:shivprahsant777@gmail.com?Subject=Hello%20again&quot; target=&quot;_top&quot;&gt;shivprashant777@gmail.com&lt;/a&gt;&lt;/h4&gt;</tspan><tspan x="0" y="125" xml:space="preserve">                &lt;/div&gt;</tspan><tspan x="0" y="131" xml:space="preserve">                &lt;div class=&quot;social&quot;&gt;</tspan><tspan x="0" y="137" xml:space="preserve">                    &lt;a href=&quot;https://github.com/ShivPrashant777&quot;&gt;&lt;div class=&quot;github&quot;&gt;</tspan><tspan x="0" y="143" xml:space="preserve">                        &lt;img src=&quot;images/github-icon-white.svg&quot; alt=&quot;&quot;&gt;</tspan><tspan x="0" y="149" xml:space="preserve">                        &lt;p&gt;Github&lt;/p&gt;</tspan><tspan x="0" y="155" xml:space="preserve">                    &lt;/div&gt;&lt;/a&gt;</tspan><tspan x="0" y="161" xml:space="preserve">                &lt;/div&gt;</tspan></text>
  </g>
</svg>
